<svg width="58" height="56" viewBox="0 0 58 56" fill="none" xmlns="http://www.w3.org/2000/svg">
<g filter="url(#filter0_d_48_64)">
<path d="M4.06978 15.4891L4 32.9229C4 33.5157 4.24403 34.0735 4.66244 34.4571C5.08085 34.8407 5.67364 35.0499 6.23148 35.0149C6.26631 35.0149 8.04455 34.8755 10.7992 34.8406C10.834 35.503 11.0432 38.1181 12.2984 40.8029C13.6931 43.7666 16.6569 47.358 22.7239 47.4975C22.8285 47.4975 22.9679 47.4975 23.0725 47.4975C26.2454 47.4975 28.8954 46.5212 30.9177 44.6034C33.2887 42.337 34.1952 39.3385 34.5439 37.3858C44.5509 40.9423 50.4435 46.1376 50.5133 46.1725C50.8969 46.5211 51.3849 46.6955 51.908 46.6955C52.1869 46.6955 52.5007 46.6257 52.7448 46.5211C53.5118 46.1725 54 45.4402 54 44.6034V4.61044C54 3.77362 53.5118 3.0414 52.7448 2.69276C51.9777 2.34413 51.106 2.48356 50.4783 3.0414C50.4086 3.11117 42.0404 10.5728 35.6946 12.5254C32.0335 13.6412 26.9428 14.2339 20.562 14.2339C13.0655 14.2339 6.51046 13.397 6.44068 13.397C5.8479 13.3273 5.25523 13.5016 4.80187 13.8852C4.34863 14.3036 4.06978 14.8963 4.06978 15.4891ZM23.0725 43.3134C23.0027 43.3134 22.8981 43.3134 22.8285 43.3134C19.6556 43.2436 17.4937 41.8838 16.1339 39.1293C15.2273 37.2812 15.0181 35.4333 14.9833 34.8057C15.8201 34.8057 16.7267 34.8406 17.5983 34.8755C17.8424 34.9801 18.1213 35.0499 18.4351 35.0499C18.6792 35.0499 18.8884 35.0151 19.1325 34.9105C22.8634 35.0848 26.908 35.4683 30.4644 36.2355C30.2204 38.397 28.9302 43.3134 23.0725 43.3134ZM36.9498 16.5351C41.4477 15.1405 46.5384 11.6188 49.8159 9.03857V40.3845C46.887 38.397 42.1451 35.6076 35.9386 33.411C31.5105 31.8419 25.8619 31.1097 20.5968 30.8307L20.6666 18.4528C27.431 18.418 32.9051 17.7904 36.9498 16.5351ZM8.25388 17.8252C10.1715 17.9996 13.1004 18.2436 16.4826 18.3482L16.4129 30.6215C15.4714 30.5867 14.5649 30.5867 13.728 30.5867C11.4966 30.5867 9.57876 30.6565 8.1841 30.6913L8.25388 17.8252Z" fill="#290484"/>
</g>
<defs>
<filter id="filter0_d_48_64" x="0" y="0" width="58" height="58" filterUnits="userSpaceOnUse" color-interpolation-filters="sRGB">
<feFlood flood-opacity="0" result="BackgroundImageFix"/>
<feColorMatrix in="SourceAlpha" type="matrix" values="0 0 0 0 0 0 0 0 0 0 0 0 0 0 0 0 0 0 127 0" result="hardAlpha"/>
<feOffset dy="4"/>
<feGaussianBlur stdDeviation="2"/>
<feComposite in2="hardAlpha" operator="out"/>
<feColorMatrix type="matrix" values="0 0 0 0 0 0 0 0 0 0 0 0 0 0 0 0 0 0 0.25 0"/>
<feBlend mode="normal" in2="BackgroundImageFix" result="effect1_dropShadow_48_64"/>
<feBlend mode="normal" in="SourceGraphic" in2="effect1_dropShadow_48_64" result="shape"/>
</filter>
</defs>
</svg>
