<svg id="圖層_1" data-name="圖層 1" xmlns="http://www.w3.org/2000/svg" viewBox="0 0 1024 1024"><defs><style>.cls-1{fill:#666398;}.cls-2{fill:#fff;}</style></defs><circle class="cls-1" cx="512" cy="512" r="512"/><polyline class="cls-2" points="325.47 219 325.47 346.39 419.69 346.39 419.69 631.65 478.92 631.65 478.92 262.76 419.6 262.76 419.6 219 325.47 219"/><polyline class="cls-2" points="686.53 219 686.53 346.39 592.32 346.39 592.32 631.65 533.08 631.65 533.08 262.76 592.4 262.76 592.4 219 686.53 219"/><path class="cls-2" d="M351.84,706.07H385.7V847H351.84Z"/><path class="cls-2" d="M485.27,734.26h-38V706.07h110.1v28.19H519.13V847H485.27Z"/><path class="cls-2" d="M603.45,706.07H653c30.83,0,56.37,11.16,56.37,46,0,33.48-25.73,48.24-55.61,48.24H637.31V847H603.45Zm48.61,67.53c16.46,0,24.41-7.75,24.41-21.56,0-14.19-9.08-19.11-25.35-19.11H637.31V773.6Z"/></svg>