<svg width="50" height="50" viewBox="0 0 50 50" fill="none" xmlns="http://www.w3.org/2000/svg">
<g clip-path="url(#clip0_48_60)">
<path d="M9.51666 0.31665C8.43333 0.699984 7.91666 1.06665 7.21666 1.98332C6.48333 2.93332 6.33333 3.59998 6.33333 5.84998V7.79998L4.88333 7.86665C2.68333 7.98332 1.38333 8.74998 0.549998 10.4667L0.0833309 11.4167L0.0333309 27.5667C-2.47359e-06 38.1667 0.0499975 44.0333 0.166664 44.65C0.533331 46.65 1.86666 48.4 3.66666 49.3L4.58333 49.75H45.25L46.2 49.3C47.4667 48.7167 48.5833 47.65 49.2167 46.4167L49.75 45.4167L49.8 24.5333L49.8333 3.64998L49.4833 2.83332C49.0833 1.91665 48.0167 0.833317 47.05 0.383317C46.45 0.0999837 45.3167 0.0833171 28.4167 0.0499837C11.25 0.0166504 10.3833 0.0166504 9.51666 0.31665ZM46.35 3.64998L46.8333 4.13332V24.1667C46.8333 41.85 46.8 44.25 46.5833 44.8C46.2333 45.6166 45.7167 46.15 44.9167 46.5167C44.2833 46.8167 43.3667 46.8333 25 46.8333C6.61666 46.8333 5.71666 46.8167 5.08333 46.5167C4.3 46.15 3.6 45.45 3.35 44.7833C3.21666 44.4667 3.16666 39.15 3.16666 28.1V11.8833L3.56666 11.45C4 10.9833 4.76666 10.7667 5.68333 10.8666L6.25 10.9167L6.33333 26.8667L6.41666 42.8167L6.8 43.2C7.35 43.7667 8.41666 43.7167 8.93333 43.1167L9.33333 42.65V23.5667C9.33333 3.13332 9.3 3.81665 10.1167 3.34998C10.3167 3.23332 16.4167 3.18332 28.1333 3.16665H45.8667L46.35 3.64998Z" fill="#290484"/>
<path d="M13.05 6.73331L12.5833 7.13331L12.5333 13.15L12.4833 19.15L12.9833 19.7L13.4667 20.25L19.0333 20.3C22.0833 20.3333 24.8333 20.3 25.15 20.25C25.45 20.1833 25.8833 19.9666 26.1 19.75L26.5 19.35V13.4166C26.5 7.34998 26.4667 7.01665 25.85 6.54998C25.65 6.39998 24.0333 6.34998 19.55 6.33331H13.5167L13.05 6.73331ZM23.4667 13.2833L23.5 17.1666H15.6667V9.33331L19.55 9.36665L23.4167 9.41665L23.4667 13.2833ZM30.0333 9.59998C29.6333 9.88331 29.55 10.3166 29.8667 10.6333C30.15 10.9166 43.1833 10.9166 43.4667 10.6333C43.7833 10.3166 43.7 9.88331 43.3 9.59998C42.9833 9.36665 42.0667 9.33331 36.6667 9.33331C31.2667 9.33331 30.35 9.36665 30.0333 9.59998ZM30.0333 14.2666C29.5667 14.5833 29.5667 15.0833 30.0333 15.4C30.6 15.8 42.7333 15.8 43.3 15.4C43.5 15.2666 43.6667 15 43.6667 14.8333C43.6667 14.6666 43.5 14.4 43.3 14.2666C42.9833 14.0333 42.0667 14 36.6667 14C31.2667 14 30.35 14.0333 30.0333 14.2666ZM30.15 18.9C29.6167 19.1666 29.55 19.7333 30.0333 20.0666C30.3667 20.3 31.2 20.3333 36.6667 20.3333C42.1333 20.3333 42.9667 20.3 43.3 20.0666C43.7833 19.7333 43.7167 19.1666 43.1667 18.8833C42.5833 18.6 30.7333 18.6 30.15 18.9ZM12.7 23.7C12.3833 24.0166 12.4667 24.45 12.8667 24.7333C13.2 24.9666 14.9167 25 28.0833 25C41.25 25 42.9667 24.9666 43.3 24.7333C43.7 24.45 43.7833 24.0166 43.4667 23.7C43.1833 23.4166 12.9833 23.4166 12.7 23.7ZM12.6333 28.6C12.45 28.9833 12.4667 29.0833 12.8167 29.35C13.1833 29.65 13.7667 29.6666 28.0667 29.6666C41.25 29.6666 42.9667 29.6333 43.3 29.4C43.7 29.1166 43.7833 28.6833 43.4667 28.3666C43.3167 28.2166 39.6667 28.1666 28.05 28.1666H12.8333L12.6333 28.6ZM12.6333 33.25C12.4833 33.6 12.5 33.7166 12.75 34C13.05 34.3166 13.2667 34.3333 19.5167 34.3333C25.1667 34.3333 26.0167 34.3 26.2333 34.0666C26.55 33.7666 26.5833 33.3166 26.3 33.0333C26.15 32.8833 24.4 32.8333 19.4667 32.8333H12.8333L12.6333 33.25ZM29.8667 33.0333C29.5833 33.3166 29.6167 33.7666 29.9333 34.0666C30.15 34.3 31 34.3333 36.6667 34.3333C42.3333 34.3333 43.1833 34.3 43.4 34.0666C43.7167 33.7666 43.75 33.3166 43.4667 33.0333C43.1833 32.75 30.15 32.75 29.8667 33.0333ZM12.6333 37.9166C12.4833 38.2666 12.5 38.3833 12.75 38.6666C13.05 38.9833 13.2667 39 19.5167 39C25.1667 39 26.0167 38.9666 26.2333 38.7333C26.55 38.4333 26.5833 37.9833 26.3 37.7C26.15 37.55 24.4 37.5 19.4667 37.5H12.8333L12.6333 37.9166ZM29.8667 37.7C29.5833 37.9833 29.6167 38.4333 29.9333 38.7333C30.15 38.9666 31 39 36.6667 39C42.3333 39 43.1833 38.9666 43.4 38.7333C43.7167 38.4333 43.75 37.9833 43.4667 37.7C43.1833 37.4166 30.15 37.4166 29.8667 37.7ZM12.6667 42.4833C12.4333 42.9333 12.45 43.1 12.7667 43.4C12.9833 43.6333 13.8333 43.6666 19.4333 43.6666C23.55 43.6666 25.9667 43.6 26.1833 43.5C26.5333 43.3 26.6 42.6666 26.3 42.3666C26.15 42.2166 24.4 42.1666 19.4667 42.1666C13.0833 42.1666 12.8333 42.1833 12.6667 42.4833ZM29.8667 42.3666C29.5833 42.65 29.6167 43.1 29.9333 43.4C30.15 43.6333 31 43.6666 36.6667 43.6666C42.3333 43.6666 43.1833 43.6333 43.4 43.4C43.7167 43.1 43.75 42.65 43.4667 42.3666C43.1833 42.0833 30.15 42.0833 29.8667 42.3666Z" fill="#290484"/>
</g>
<defs>
<clipPath id="clip0_48_60">
<rect width="50" height="50" fill="white"/>
</clipPath>
</defs>
</svg>
